<?xml version="1.0" standalone="no"?>
<!DOCTYPE svg PUBLIC "-//W3C//DTD SVG 20010904//EN"
 "http://www.w3.org/TR/2001/REC-SVG-20010904/DTD/svg10.dtd">
<svg version="1.0" xmlns="http://www.w3.org/2000/svg"
 width="300.000000pt" height="300.000000pt" viewBox="0 0 300.000000 300.000000"
 preserveAspectRatio="xMidYMid meet">
<metadata>
Created by potrace 1.11, written by Peter Selinger 2001-2013
</metadata>
<g transform="translate(0.000000,300.000000) scale(0.100000,-0.100000)"
fill="#000000" stroke="none">
<path d="M1368 2995 c-1 -1 -28 -5 -58 -9 -121 -12 -301 -60 -380 -101 -16 -8
-32 -15 -35 -15 -8 1 -119 -54 -125 -61 -3 -3 -21 -14 -40 -23 -56 -26 -199
-137 -280 -217 -181 -178 -313 -395 -383 -631 -53 -178 -66 -276 -62 -468 3
-134 9 -190 39 -335 12 -58 64 -198 114 -305 19 -42 111 -193 122 -200 4 -3 9
-10 11 -16 7 -19 90 -114 164 -188 72 -72 213 -182 251 -197 12 -4 25 -13 29
-19 3 -5 11 -8 16 -5 5 4 9 2 9 -4 0 -9 120 -70 190 -96 19 -7 44 -16 55 -21
58 -21 188 -53 280 -68 90 -14 360 -15 435 -1 117 22 223 50 300 80 86 33 200
85 210 95 3 3 22 14 43 25 94 49 266 195 373 317 126 143 278 438 308 598 2
14 9 45 14 70 26 115 36 348 20 485 -58 501 -378 943 -847 1170 -72 35 -203
82 -250 91 -14 3 -28 7 -33 10 -26 16 -195 36 -330 39 -86 2 -158 2 -160 0z"/>
</g>
</svg>
