<?xml version="1.0" standalone="no"?>
<!DOCTYPE svg PUBLIC "-//W3C//DTD SVG 20010904//EN"
 "http://www.w3.org/TR/2001/REC-SVG-20010904/DTD/svg10.dtd">
<svg version="1.0" xmlns="http://www.w3.org/2000/svg"
 width="150.000000pt" height="150.000000pt" viewBox="0 0 150.000000 150.000000"
 preserveAspectRatio="xMidYMid meet">
<metadata>
Created by potrace 1.11, written by Peter Selinger 2001-2013
</metadata>
<g transform="translate(0.000000,150.000000) scale(0.100000,-0.100000)"
fill="#000000" stroke="none">
<path d="M660 1497 c-3 -3 -25 -8 -50 -11 -73 -10 -280 -97 -280 -118 0 -5 -4
-8 -10 -8 -22 0 -166 -140 -175 -171 -4 -11 -10 -19 -14 -19 -16 0 -92 -170
-110 -246 -25 -105 -22 -285 7 -379 81 -259 279 -453 532 -520 78 -21 258 -28
320 -14 25 6 54 12 65 15 60 12 212 88 269 134 145 118 247 290 274 460 8 53
8 234 -1 270 -3 14 -8 34 -11 45 -53 213 -209 401 -411 494 -57 27 -86 36
-167 57 -32 7 -232 17 -238 11z"/>
</g>
</svg>
